<svg width="68" height="50" viewBox="0 0 68 50" fill="none" xmlns="http://www.w3.org/2000/svg">
<path d="M64.3313 4.38995C63.3519 6.41378 62.901 8.27036 62.9786 9.95967C63.0182 10.7516 63.4066 11.3084 64.1435 11.6302C64.5185 11.7978 64.8247 12.0472 65.0623 12.3785L65.7477 13.3362C69.0163 19.6426 68.4294 25.3012 63.9873 30.312C61.3733 33.2534 58.3308 35.5885 54.86 37.3173C54.6999 37.3959 54.5241 37.4372 54.3457 37.438C54.1672 37.4388 53.9909 37.3991 53.83 37.3219C53.6691 37.2447 53.5278 37.1321 53.4168 36.9925C53.3058 36.8528 53.2279 36.6899 53.1892 36.516C52.8147 34.8899 52.2917 33.3838 51.6199 31.9978C51.2955 31.3353 51.1192 31.3703 51.0911 32.103C51.0076 33.9477 51.1621 35.8586 51.5545 37.8358C51.5814 37.9844 51.5574 38.1372 51.4868 38.2691C51.4161 38.4009 51.303 38.5038 51.166 38.5607L32.2351 46.538C31.3732 46.8971 30.9513 46.6114 30.9694 45.6807L30.999 44.617C31.0037 44.1767 30.7859 43.9275 30.3457 43.8695C30.09 43.8412 29.8774 43.9165 29.708 44.0955C29.533 44.2902 29.4183 44.5149 29.3639 44.7698C29.2038 45.5001 29.0333 46.2223 28.8523 46.9365C28.7963 47.1403 28.6888 47.3267 28.5401 47.4783C28.3914 47.6299 28.2062 47.7418 28.0018 47.8035C18.6469 50.5427 9.48847 50.5267 0.526409 47.7555C-0.00701944 47.5851 -0.134954 47.2571 0.142576 46.7715C2.84711 42.0409 5.91997 37.5595 9.36116 33.3273C9.70362 32.9088 10.1422 32.7452 10.6769 32.8365C11.4513 32.977 12.1987 33.3068 12.9191 33.8261C13.4282 34.1912 13.9578 34.2719 14.5081 34.0681C14.6303 34.0228 14.7215 33.94 14.7816 33.8198C14.9449 33.5326 14.9136 33.2696 14.6878 33.0309C13.9532 32.2503 13.1198 31.6116 12.1876 31.115C12.0703 31.0509 11.9705 30.959 11.8972 30.8476C11.8239 30.7361 11.7794 30.6086 11.7678 30.4767C11.7563 30.3448 11.7779 30.2127 11.8309 30.0924C11.8838 29.972 11.9664 29.8672 12.071 29.7876L26.8687 18.4963C27.4011 18.0918 27.951 18.0647 28.5184 18.4151C29.6769 19.1241 30.8851 19.78 32.1431 20.3827C33.7288 21.1363 34.0519 20.7729 33.1123 19.2923C32.4766 18.2814 31.6934 17.3245 30.7627 16.4217C30.6383 16.3034 30.5386 16.1617 30.4692 16.0048C30.3998 15.8479 30.3621 15.6789 30.3584 15.5076C30.3546 15.3362 30.3848 15.1658 30.4472 15.0062C30.5096 14.8465 30.603 14.7009 30.722 14.5775C33.9449 11.2408 37.3352 8.32112 40.8929 5.81852C42.2 4.90034 43.3316 5.08277 44.2877 6.3658C45.5871 8.13234 47.1627 9.56754 49.0147 10.6714C49.7888 11.1389 49.962 10.9745 49.534 10.1783L45.9397 3.52716C45.8477 3.35537 45.8275 3.15435 45.8833 2.96788C45.9391 2.7814 46.0664 2.62459 46.2376 2.53159C49.6042 0.721856 53.1025 -0.117603 56.7327 0.0132133C58.99 0.0931193 61.5229 1.55203 64.3313 4.38995ZM27.14 34.3453C26.4926 34.1966 25.9836 34.384 25.613 34.9075C25.5671 34.9716 25.5389 35.0466 25.5312 35.125C25.5235 35.2034 25.5366 35.2825 25.5691 35.3544C25.6016 35.4262 25.6524 35.4883 25.7164 35.5345C25.7805 35.5807 25.8555 35.6092 25.934 35.6174C28.1337 35.8229 31.4964 33.2957 33.497 32.3701C35.1554 31.6112 36.7164 30.7516 38.1801 29.7914C41.0564 27.9148 43.8461 26.0829 46.5492 24.2956C49.3496 22.4586 52.3541 21.2108 54.8866 19.0406C55.8218 18.2477 56.8357 17.9599 57.9284 18.1772C58.218 18.2351 58.4285 18.1281 58.5598 17.8562C59.3288 16.2532 60.6483 15.0609 62.5184 14.2794C62.8083 14.1606 62.9677 13.9472 62.9966 13.6391C63.0292 13.2705 62.6957 13.1485 61.9963 13.2731C61.8292 13.3012 61.6729 13.3691 61.5412 13.4707C59.0092 15.451 56.3722 17.2395 53.6299 18.8362C50.8692 20.4352 48.1521 22.1115 45.4786 23.8651C42.944 25.5262 40.3466 27.227 37.6866 28.9676C34.682 30.9315 31.4641 32.1439 28.5748 34.0822C28.134 34.3776 27.6557 34.4653 27.14 34.3453ZM20.2221 30.4095C20.1903 30.4514 20.2131 30.5339 20.2892 30.6523C20.3653 30.7707 20.4933 30.9228 20.6657 31.0998C20.8382 31.2767 21.0518 31.4752 21.2943 31.6838C21.5368 31.8923 21.8035 32.1069 22.0792 32.3154C22.3548 32.5237 22.634 32.7218 22.9008 32.8983C23.1676 33.0748 23.4168 33.2262 23.6342 33.3439C23.8515 33.4616 24.0328 33.5434 24.1676 33.5844C24.3024 33.6254 24.3881 33.625 24.4198 33.5831C24.4516 33.5412 24.4288 33.4587 24.3527 33.3403C24.2766 33.2218 24.1487 33.0698 23.9762 32.8928C23.8038 32.7158 23.5902 32.5174 23.3477 32.3088C23.1051 32.1003 22.8384 31.8856 22.5627 31.6772C22.2871 31.4689 22.008 31.2708 21.7411 31.0943C21.4743 30.9178 21.2251 30.7664 21.0078 30.6487C20.7904 30.5309 20.6092 30.4492 20.4744 30.4082C20.3396 30.3672 20.2539 30.3676 20.2221 30.4095Z" fill="#7DB286"/>
<path d="M28.5748 34.0822C31.4641 32.1439 34.682 30.9315 37.6866 28.9676C40.3466 27.227 42.944 25.5262 45.4786 23.8651C48.1521 22.1115 50.8692 20.4352 53.6299 18.8362C56.3722 17.2395 59.0092 15.451 61.5412 13.4707C61.6729 13.3691 61.8292 13.3012 61.9963 13.2731C62.6957 13.1485 63.0292 13.2705 62.9966 13.6391C62.9677 13.9472 62.8083 14.1606 62.5184 14.2794C60.6483 15.0609 59.3288 16.2532 58.5598 17.8562C58.4285 18.1281 58.218 18.2351 57.9284 18.1772C56.8357 17.9599 55.8218 18.2477 54.8866 19.0406C52.3541 21.2108 49.3496 22.4586 46.5492 24.2956C43.8461 26.0829 41.0564 27.9148 38.1801 29.7914C36.7164 30.7516 35.1554 31.6112 33.497 32.3701C31.4964 33.2957 28.1337 35.8229 25.934 35.6174C25.8555 35.6092 25.7805 35.5807 25.7164 35.5345C25.6524 35.4883 25.6016 35.4262 25.5691 35.3544C25.5366 35.2825 25.5235 35.2034 25.5312 35.125C25.5389 35.0466 25.5671 34.9716 25.613 34.9075C25.9836 34.384 26.4926 34.1966 27.14 34.3453C27.6557 34.4653 28.134 34.3776 28.5748 34.0822Z" fill="#618756"/>
<path d="M22.5627 31.6772C21.4036 30.8009 20.3556 30.2334 20.2221 30.4095C20.0886 30.5857 20.92 31.439 22.0792 32.3154C23.2383 33.1917 24.2863 33.7592 24.4198 33.5831C24.5533 33.4069 23.7219 32.5536 22.5627 31.6772Z" fill="#618756"/>
</svg>
